# xmcd
#
# Track frame offsets:
#	150
#	18032
#	32937
#	48502
#	67620
#	85002
#	107107
#	123482
#	139797
#	152942
#	172470
#	186260
#	205412
#	220792
#	240255
#
# Disc length: 3459 seconds
#
# Revision: 1
# Processed by: cddbd v1.5.2PL0 Copyright (c) Steve Scherf et al.
# Submitted via: audiograbber 1.83.01
#
DISCID=cf0d810f
DTITLE=N Sync - Celebrity
DYEAR=1900
DGENRE=
TTITLE0=Pop
TTITLE1=Celebrity
TTITLE2=The game is over
TTITLE3=Girlfriend
TTITLE4=The two of us
TTITLE5=Gone
TTITLE6=Tell me tell me baby
TTITLE7=Up against the wall
TTITLE8=See right through you
TTITLE9=Selfish
TTITLE10=Just don't tell me that
TTITLE11=Something like you
TTITLE12=That girl (will never be mine)
TTITLE13=Do your thing
TTITLE14=bonus
EXTD=
EXTT0=
EXTT1=
EXTT2=
EXTT3=
EXTT4=
EXTT5=
EXTT6=
EXTT7=
EXTT8=
EXTT9=
EXTT10=
EXTT11=
EXTT12=
EXTT13=
EXTT14=
PLAYORDER=
